<svg width="223" height="171" viewBox="0 0 223 171" fill="none" xmlns="http://www.w3.org/2000/svg">
<g filter="url(#filter0_d_0_187)">
<rect x="24" y="7" width="172" height="117" rx="24" fill="white"/>
</g>
<path d="M84.732 41.168C84.0787 41.168 83.472 41.0467 82.912 40.804C82.352 40.552 81.876 40.2113 81.484 39.782C81.092 39.3527 80.8027 38.858 80.616 38.298L82.016 37.71C82.268 38.354 82.6367 38.8487 83.122 39.194C83.6073 39.5393 84.1673 39.712 84.802 39.712C85.1753 39.712 85.502 39.656 85.782 39.544C86.062 39.4227 86.2767 39.2547 86.426 39.04C86.5847 38.8253 86.664 38.578 86.664 38.298C86.664 37.9153 86.5567 37.612 86.342 37.388C86.1273 37.164 85.81 36.9867 85.39 36.856L83.43 36.24C82.646 35.9973 82.0487 35.6287 81.638 35.134C81.2273 34.63 81.022 34.042 81.022 33.37C81.022 32.782 81.1667 32.2687 81.456 31.83C81.7453 31.382 82.142 31.032 82.646 30.78C83.1593 30.528 83.7427 30.402 84.396 30.402C85.0213 30.402 85.5907 30.514 86.104 30.738C86.6173 30.9527 87.056 31.2513 87.42 31.634C87.7933 32.0167 88.064 32.46 88.232 32.964L86.86 33.566C86.6547 33.0153 86.3327 32.5907 85.894 32.292C85.4647 31.9933 84.9653 31.844 84.396 31.844C84.0507 31.844 83.7473 31.9047 83.486 32.026C83.2247 32.138 83.0193 32.306 82.87 32.53C82.73 32.7447 82.66 32.9967 82.66 33.286C82.66 33.622 82.7673 33.9207 82.982 34.182C83.1967 34.4433 83.5233 34.6393 83.962 34.77L85.782 35.344C86.6127 35.596 87.238 35.96 87.658 36.436C88.078 36.9027 88.288 37.486 88.288 38.186C88.288 38.7647 88.134 39.278 87.826 39.726C87.5273 40.174 87.112 40.5287 86.58 40.79C86.048 41.042 85.432 41.168 84.732 41.168ZM89.9885 43.8V33.426H91.5005V34.994L91.3185 34.63C91.5985 34.2007 91.9718 33.8647 92.4385 33.622C92.9051 33.3793 93.4371 33.258 94.0345 33.258C94.7531 33.258 95.3971 33.4307 95.9665 33.776C96.5451 34.1213 96.9978 34.5927 97.3245 35.19C97.6605 35.7873 97.8285 36.4593 97.8285 37.206C97.8285 37.9527 97.6605 38.6247 97.3245 39.222C96.9978 39.8193 96.5498 40.2953 95.9805 40.65C95.4111 40.9953 94.7625 41.168 94.0345 41.168C93.4465 41.168 92.9098 41.0467 92.4245 40.804C91.9485 40.5613 91.5798 40.2113 91.3185 39.754L91.5705 39.46V43.8H89.9885ZM93.8805 39.698C94.3285 39.698 94.7251 39.5907 95.0705 39.376C95.4158 39.1613 95.6865 38.8673 95.8825 38.494C96.0878 38.1113 96.1905 37.682 96.1905 37.206C96.1905 36.73 96.0878 36.3053 95.8825 35.932C95.6865 35.5587 95.4158 35.2647 95.0705 35.05C94.7251 34.8353 94.3285 34.728 93.8805 34.728C93.4418 34.728 93.0451 34.8353 92.6905 35.05C92.3451 35.2647 92.0698 35.5587 91.8645 35.932C91.6685 36.3053 91.5705 36.73 91.5705 37.206C91.5705 37.682 91.6685 38.1113 91.8645 38.494C92.0698 38.8673 92.3451 39.1613 92.6905 39.376C93.0451 39.5907 93.4418 39.698 93.8805 39.698ZM101.635 41.168C101.122 41.168 100.669 41.0793 100.277 40.902C99.8947 40.7153 99.596 40.4633 99.3814 40.146C99.1667 39.8193 99.0594 39.4367 99.0594 38.998C99.0594 38.5873 99.148 38.2187 99.3254 37.892C99.512 37.5653 99.7967 37.29 100.179 37.066C100.562 36.842 101.043 36.6833 101.621 36.59L104.253 36.156V37.402L101.929 37.808C101.509 37.8827 101.201 38.018 101.005 38.214C100.809 38.4007 100.711 38.6433 100.711 38.942C100.711 39.2313 100.819 39.4693 101.033 39.656C101.257 39.8333 101.542 39.922 101.887 39.922C102.317 39.922 102.69 39.8287 103.007 39.642C103.334 39.4553 103.586 39.208 103.763 38.9C103.941 38.5827 104.029 38.2327 104.029 37.85V35.904C104.029 35.5307 103.889 35.2273 103.609 34.994C103.339 34.7513 102.975 34.63 102.517 34.63C102.097 34.63 101.729 34.742 101.411 34.966C101.103 35.1807 100.875 35.4607 100.725 35.806L99.4094 35.148C99.5494 34.7747 99.778 34.448 100.095 34.168C100.413 33.8787 100.781 33.6547 101.201 33.496C101.631 33.3373 102.083 33.258 102.559 33.258C103.157 33.258 103.684 33.37 104.141 33.594C104.608 33.818 104.967 34.1307 105.219 34.532C105.481 34.924 105.611 35.3813 105.611 35.904V41H104.099V39.628L104.421 39.67C104.244 39.978 104.015 40.244 103.735 40.468C103.465 40.692 103.152 40.8647 102.797 40.986C102.452 41.1073 102.065 41.168 101.635 41.168ZM111.059 41.168C110.303 41.168 109.631 40.9953 109.043 40.65C108.464 40.2953 108.002 39.8193 107.657 39.222C107.321 38.6247 107.153 37.948 107.153 37.192C107.153 36.4453 107.321 35.7733 107.657 35.176C107.993 34.5787 108.455 34.112 109.043 33.776C109.631 33.4307 110.303 33.258 111.059 33.258C111.572 33.258 112.053 33.3513 112.501 33.538C112.949 33.7153 113.336 33.9627 113.663 34.28C113.999 34.5973 114.246 34.966 114.405 35.386L113.019 36.03C112.86 35.638 112.604 35.3253 112.249 35.092C111.904 34.8493 111.507 34.728 111.059 34.728C110.63 34.728 110.242 34.8353 109.897 35.05C109.561 35.2553 109.295 35.5493 109.099 35.932C108.903 36.3053 108.805 36.73 108.805 37.206C108.805 37.682 108.903 38.1113 109.099 38.494C109.295 38.8673 109.561 39.1613 109.897 39.376C110.242 39.5907 110.63 39.698 111.059 39.698C111.516 39.698 111.913 39.5813 112.249 39.348C112.594 39.1053 112.851 38.7833 113.019 38.382L114.405 39.04C114.256 39.4413 114.013 39.8053 113.677 40.132C113.35 40.4493 112.963 40.7013 112.515 40.888C112.067 41.0747 111.582 41.168 111.059 41.168ZM119.507 41.168C118.751 41.168 118.079 40.9953 117.491 40.65C116.913 40.2953 116.46 39.8193 116.133 39.222C115.807 38.6153 115.643 37.9387 115.643 37.192C115.643 36.4267 115.807 35.75 116.133 35.162C116.469 34.574 116.917 34.112 117.477 33.776C118.037 33.4307 118.672 33.258 119.381 33.258C119.951 33.258 120.459 33.356 120.907 33.552C121.355 33.748 121.733 34.0187 122.041 34.364C122.349 34.7 122.583 35.0873 122.741 35.526C122.909 35.9647 122.993 36.4313 122.993 36.926C122.993 37.0473 122.989 37.1733 122.979 37.304C122.97 37.4347 122.951 37.556 122.923 37.668H116.889V36.408H122.027L121.271 36.982C121.365 36.5247 121.332 36.1187 121.173 35.764C121.024 35.4 120.791 35.1153 120.473 34.91C120.165 34.6953 119.801 34.588 119.381 34.588C118.961 34.588 118.588 34.6953 118.261 34.91C117.935 35.1153 117.683 35.414 117.505 35.806C117.328 36.1887 117.258 36.6553 117.295 37.206C117.249 37.7193 117.319 38.1673 117.505 38.55C117.701 38.9327 117.972 39.2313 118.317 39.446C118.672 39.6607 119.073 39.768 119.521 39.768C119.979 39.768 120.366 39.6653 120.683 39.46C121.01 39.2547 121.267 38.9887 121.453 38.662L122.741 39.292C122.592 39.6467 122.359 39.9687 122.041 40.258C121.733 40.538 121.36 40.762 120.921 40.93C120.492 41.0887 120.021 41.168 119.507 41.168ZM126.371 41L123.767 33.426H125.447L127.435 39.46H126.847L128.877 33.426H130.319L132.335 39.46H131.747L133.749 33.426H135.429L132.811 41H131.383L129.339 34.826H129.857L127.813 41H126.371ZM138.508 41.168C137.995 41.168 137.542 41.0793 137.15 40.902C136.768 40.7153 136.469 40.4633 136.254 40.146C136.04 39.8193 135.932 39.4367 135.932 38.998C135.932 38.5873 136.021 38.2187 136.198 37.892C136.385 37.5653 136.67 37.29 137.052 37.066C137.435 36.842 137.916 36.6833 138.494 36.59L141.126 36.156V37.402L138.802 37.808C138.382 37.8827 138.074 38.018 137.878 38.214C137.682 38.4007 137.584 38.6433 137.584 38.942C137.584 39.2313 137.692 39.4693 137.906 39.656C138.13 39.8333 138.415 39.922 138.76 39.922C139.19 39.922 139.563 39.8287 139.88 39.642C140.207 39.4553 140.459 39.208 140.636 38.9C140.814 38.5827 140.902 38.2327 140.902 37.85V35.904C140.902 35.5307 140.762 35.2273 140.482 34.994C140.212 34.7513 139.848 34.63 139.39 34.63C138.97 34.63 138.602 34.742 138.284 34.966C137.976 35.1807 137.748 35.4607 137.598 35.806L136.282 35.148C136.422 34.7747 136.651 34.448 136.968 34.168C137.286 33.8787 137.654 33.6547 138.074 33.496C138.504 33.3373 138.956 33.258 139.432 33.258C140.03 33.258 140.557 33.37 141.014 33.594C141.481 33.818 141.84 34.1307 142.092 34.532C142.354 34.924 142.484 35.3813 142.484 35.904V41H140.972V39.628L141.294 39.67C141.117 39.978 140.888 40.244 140.608 40.468C140.338 40.692 140.025 40.8647 139.67 40.986C139.325 41.1073 138.938 41.168 138.508 41.168ZM144.334 41V30.402H145.916V41H144.334ZM147.766 41V30.402H149.348V37.5L148.732 37.346L152.526 33.426H154.5L151.644 36.464L154.626 41H152.806L150.146 36.982L151.084 36.856L148.844 39.236L149.348 38.186V41H147.766ZM158.509 41.168C157.734 41.168 157.053 40.9767 156.465 40.594C155.886 40.2113 155.48 39.698 155.247 39.054L156.465 38.48C156.67 38.9093 156.95 39.25 157.305 39.502C157.669 39.754 158.07 39.88 158.509 39.88C158.882 39.88 159.186 39.796 159.419 39.628C159.652 39.46 159.769 39.2313 159.769 38.942C159.769 38.7553 159.718 38.606 159.615 38.494C159.512 38.3727 159.382 38.2747 159.223 38.2C159.074 38.1253 158.92 38.0693 158.761 38.032L157.571 37.696C156.918 37.5093 156.428 37.2293 156.101 36.856C155.784 36.4733 155.625 36.03 155.625 35.526C155.625 35.0687 155.742 34.672 155.975 34.336C156.208 33.9907 156.53 33.7247 156.941 33.538C157.352 33.3513 157.814 33.258 158.327 33.258C159.018 33.258 159.634 33.4307 160.175 33.776C160.716 34.112 161.099 34.5833 161.323 35.19L160.105 35.764C159.956 35.4 159.718 35.1107 159.391 34.896C159.074 34.6813 158.714 34.574 158.313 34.574C157.968 34.574 157.692 34.658 157.487 34.826C157.282 34.9847 157.179 35.1947 157.179 35.456C157.179 35.6333 157.226 35.7827 157.319 35.904C157.412 36.016 157.534 36.1093 157.683 36.184C157.832 36.2493 157.986 36.3053 158.145 36.352L159.377 36.716C160.002 36.8933 160.483 37.1733 160.819 37.556C161.155 37.9293 161.323 38.3773 161.323 38.9C161.323 39.348 161.202 39.7447 160.959 40.09C160.726 40.426 160.399 40.692 159.979 40.888C159.559 41.0747 159.069 41.168 158.509 41.168Z" fill="#020305"/>
<g clip-path="url(#clip0_0_187)">
<path d="M130.751 63.2737H36.2489V111.721H130.751V63.2737Z" stroke="#A9C2CB" stroke-miterlimit="10"/>
<path d="M45.8669 63.2737V111.721" stroke="#A9C2CB" stroke-miterlimit="10"/>
<path d="M56.839 63.2737V111.721" stroke="#A9C2CB" stroke-miterlimit="10"/>
<path d="M67.816 63.2737V111.721" stroke="#A9C2CB" stroke-miterlimit="10"/>
<path d="M78.7881 63.2737V111.721" stroke="#A9C2CB" stroke-miterlimit="10"/>
<path d="M89.7602 63.2737V111.721" stroke="#A9C2CB" stroke-miterlimit="10"/>
<path d="M100.737 63.2737V111.721" stroke="#A9C2CB" stroke-miterlimit="10"/>
<path d="M111.709 63.2737V111.721" stroke="#A9C2CB" stroke-miterlimit="10"/>
<path d="M122.681 63.2737V111.721" stroke="#A9C2CB" stroke-miterlimit="10"/>
<path d="M130.751 63.2737H36.2489" stroke="#A9C2CB" stroke-width="1.11" stroke-miterlimit="10"/>
<path d="M130.751 70.1954H36.2489" stroke="#A9C2CB" stroke-width="1.11" stroke-miterlimit="10"/>
<path d="M130.751 77.1173H36.2489" stroke="#A9C2CB" stroke-width="1.11" stroke-miterlimit="10"/>
<path d="M130.751 84.0391H36.2489" stroke="#A9C2CB" stroke-width="1.11" stroke-miterlimit="10"/>
<path d="M130.751 90.9609H36.2489" stroke="#A9C2CB" stroke-width="1.11" stroke-miterlimit="10"/>
<path d="M130.751 97.8777H36.2489" stroke="#A9C2CB" stroke-width="1.11" stroke-miterlimit="10"/>
<path d="M130.751 104.8H36.2489" stroke="#A9C2CB" stroke-width="1.11" stroke-miterlimit="10"/>
<path d="M130.751 111.721H36.2489" stroke="#A9C2CB" stroke-width="1.11" stroke-miterlimit="10"/>
<path d="M122.681 76.6993H100.697L78.8926 83.9396L67.6418 104.606L56.8489 90.9162L45.8669 104.606" stroke="url(#paint0_linear_0_187)" stroke-miterlimit="10"/>
<path d="M47.2757 104.601C47.2757 104.879 47.1931 105.151 47.0383 105.383C46.8835 105.614 46.6635 105.795 46.406 105.902C46.1486 106.008 45.8653 106.036 45.592 105.982C45.3187 105.927 45.0677 105.793 44.8707 105.596C44.6736 105.399 44.5395 105.148 44.4851 104.875C44.4307 104.602 44.4586 104.319 44.5653 104.062C44.6719 103.804 44.8525 103.584 45.0842 103.43C45.3159 103.275 45.5882 103.192 45.8669 103.192C46.2405 103.192 46.5989 103.341 46.8631 103.605C47.1273 103.869 47.2757 104.227 47.2757 104.601Z" fill="url(#paint1_linear_0_187)"/>
<path d="M56.8489 92.3293C57.627 92.3293 58.2578 91.6988 58.2578 90.9211C58.2578 90.1433 57.627 89.5128 56.8489 89.5128C56.0708 89.5128 55.4401 90.1433 55.4401 90.9211C55.4401 91.6988 56.0708 92.3293 56.8489 92.3293Z" fill="url(#paint2_linear_0_187)"/>
<path d="M69.0556 104.601C69.0566 104.88 68.9744 105.154 68.8194 105.388C68.6644 105.621 68.4437 105.803 68.1851 105.91C67.9266 106.018 67.6419 106.046 67.3672 105.992C67.0925 105.937 66.8401 105.803 66.6421 105.605C66.444 105.407 66.3093 105.155 66.2549 104.88C66.2005 104.605 66.2289 104.321 66.3365 104.062C66.4442 103.804 66.6262 103.583 66.8594 103.428C67.0927 103.273 67.3667 103.191 67.6468 103.192C68.02 103.194 68.3776 103.342 68.6415 103.606C68.9054 103.87 69.0543 104.227 69.0556 104.601Z" fill="url(#paint3_linear_0_187)"/>
<path d="M80.3015 83.9395C80.3015 84.218 80.2188 84.4903 80.064 84.7219C79.9092 84.9535 79.6892 85.134 79.4318 85.2406C79.1743 85.3471 78.8911 85.375 78.6178 85.3207C78.3445 85.2664 78.0935 85.1322 77.8964 84.9353C77.6994 84.7383 77.5652 84.4874 77.5108 84.2142C77.4565 83.9411 77.4844 83.6579 77.591 83.4006C77.6976 83.1433 77.8782 82.9233 78.1099 82.7686C78.3416 82.6139 78.614 82.5313 78.8926 82.5313C79.0778 82.5306 79.2613 82.5666 79.4325 82.6371C79.6038 82.7077 79.7593 82.8114 79.8903 82.9423C80.0212 83.0732 80.125 83.2287 80.1956 83.3998C80.2661 83.571 80.3021 83.7544 80.3015 83.9395Z" fill="url(#paint4_linear_0_187)"/>
<path d="M100.697 78.1075C101.475 78.1075 102.106 77.477 102.106 76.6993C102.106 75.9215 101.475 75.291 100.697 75.291C99.9193 75.291 99.2885 75.9215 99.2885 76.6993C99.2885 77.477 99.9193 78.1075 100.697 78.1075Z" fill="url(#paint5_linear_0_187)"/>
<path d="M124.095 76.6993C124.096 76.9798 124.014 77.2543 123.858 77.4878C123.702 77.7213 123.481 77.9032 123.221 78.0103C122.962 78.1174 122.676 78.1449 122.401 78.0893C122.126 78.0337 121.874 77.8975 121.676 77.6981C121.479 77.4986 121.345 77.245 121.293 76.9694C121.24 76.6938 121.271 76.4088 121.38 76.1507C121.49 75.8925 121.675 75.6729 121.91 75.5198C122.145 75.3667 122.421 75.2871 122.701 75.291C123.072 75.2963 123.426 75.4468 123.686 75.7102C123.947 75.9735 124.094 76.3287 124.095 76.6993Z" fill="url(#paint6_linear_0_187)"/>
</g>
<g clip-path="url(#clip1_0_187)">
<path d="M160.53 87.5025L138.234 80.2423C139.712 75.4937 142.68 71.349 146.696 68.4232C150.713 65.4973 155.564 63.9462 160.53 64V87.5025Z" fill="#171E27" fill-opacity="0.6"/>
<path d="M160.53 87.5025L174.323 106.514C169.289 110.177 163.007 111.687 156.86 110.712C150.714 109.737 145.206 106.356 141.548 101.313C139.319 98.3398 137.849 94.8651 137.269 91.1922C136.689 87.5193 137.015 83.7599 138.219 80.2423L160.53 87.5025Z" fill="#171E27" fill-opacity="0.8"/>
<path d="M160.53 87.5025L174.324 68.4911C176.816 70.3046 178.928 72.5923 180.538 75.2235C182.148 77.8546 183.225 80.7777 183.706 83.8257C184.188 86.8737 184.066 89.9869 183.346 92.9875C182.626 95.988 181.323 98.8171 179.511 101.313C178.08 103.321 176.327 105.079 174.324 106.514L160.53 87.5025Z" fill="#A9C2CB" fill-opacity="0.6"/>
<path d="M160.53 87.5025V64C165.494 63.9234 170.344 65.4937 174.324 68.4663L160.53 87.5025Z" fill="#171E27" fill-opacity="0.2"/>
</g>
<rect x="36" y="19" width="32" height="32" rx="12" fill="#A9C2CB"/>
<g filter="url(#filter1_d_0_187)">
<path fill-rule="evenodd" clip-rule="evenodd" d="M53.9798 27.2468C56.8073 27.9666 59.0333 30.1926 59.7531 33.0202C60.0257 34.0906 59.1046 34.9999 58 34.9999H54C52.8954 34.9999 52 34.1045 52 32.9999V28.9999C52 27.8953 52.9093 26.9743 53.9798 27.2468ZM44 35.7999C44 31.9577 47.0096 28.8184 50.8 28.6109V33.4C50.8 34.9464 52.0536 36.2 53.6 36.2H58.3891C58.1815 39.9903 55.0422 42.9999 51.2 42.9999C47.2235 42.9999 44 39.7764 44 35.7999Z" fill="white"/>
</g>
<defs>
<filter id="filter0_d_0_187" x="-3" y="0" width="226" height="171" filterUnits="userSpaceOnUse" color-interpolation-filters="sRGB">
<feFlood flood-opacity="0" result="BackgroundImageFix"/>
<feColorMatrix in="SourceAlpha" type="matrix" values="0 0 0 0 0 0 0 0 0 0 0 0 0 0 0 0 0 0 127 0" result="hardAlpha"/>
<feMorphology radius="12" operator="erode" in="SourceAlpha" result="effect1_dropShadow_0_187"/>
<feOffset dy="20"/>
<feGaussianBlur stdDeviation="19.5"/>
<feComposite in2="hardAlpha" operator="out"/>
<feColorMatrix type="matrix" values="0 0 0 0 0.388235 0 0 0 0 0.458824 0 0 0 0 0.486275 0 0 0 0.4 0"/>
<feBlend mode="normal" in2="BackgroundImageFix" result="effect1_dropShadow_0_187"/>
<feBlend mode="normal" in="SourceGraphic" in2="effect1_dropShadow_0_187" result="shape"/>
</filter>
<filter id="filter1_d_0_187" x="37" y="24.1985" width="29.8014" height="29.8014" filterUnits="userSpaceOnUse" color-interpolation-filters="sRGB">
<feFlood flood-opacity="0" result="BackgroundImageFix"/>
<feColorMatrix in="SourceAlpha" type="matrix" values="0 0 0 0 0 0 0 0 0 0 0 0 0 0 0 0 0 0 127 0" result="hardAlpha"/>
<feOffset dy="4"/>
<feGaussianBlur stdDeviation="3.5"/>
<feComposite in2="hardAlpha" operator="out"/>
<feColorMatrix type="matrix" values="0 0 0 0 0.388451 0 0 0 0 0.459239 0 0 0 0 0.484722 0 0 0 0.8 0"/>
<feBlend mode="normal" in2="BackgroundImageFix" result="effect1_dropShadow_0_187"/>
<feBlend mode="normal" in="SourceGraphic" in2="effect1_dropShadow_0_187" result="shape"/>
</filter>
<linearGradient id="paint0_linear_0_187" x1="45.6727" y1="90.7519" x2="122.681" y2="90.7519" gradientUnits="userSpaceOnUse">
<stop stop-color="#171E27"/>
<stop offset="1" stop-color="#A9C2CB"/>
</linearGradient>
<linearGradient id="paint1_linear_0_187" x1="44.458" y1="104.605" x2="47.2757" y2="104.605" gradientUnits="userSpaceOnUse">
<stop stop-color="#171E27"/>
<stop offset="1" stop-color="#A9C2CB"/>
</linearGradient>
<linearGradient id="paint2_linear_0_187" x1="55.4401" y1="90.9211" x2="58.2578" y2="90.9211" gradientUnits="userSpaceOnUse">
<stop stop-color="#171E27"/>
<stop offset="1" stop-color="#A9C2CB"/>
</linearGradient>
<linearGradient id="paint3_linear_0_187" x1="66.2329" y1="104.605" x2="69.0556" y2="104.605" gradientUnits="userSpaceOnUse">
<stop stop-color="#A9C2CB"/>
<stop offset="0.0001" stop-color="#171E27"/>
<stop offset="1" stop-color="#A9C2CB"/>
</linearGradient>
<linearGradient id="paint4_linear_0_187" x1="77.4838" y1="83.9395" x2="80.3015" y2="83.9395" gradientUnits="userSpaceOnUse">
<stop stop-color="#171E27"/>
<stop offset="1" stop-color="#A9C2CB"/>
</linearGradient>
<linearGradient id="paint5_linear_0_187" x1="99.2835" y1="76.6993" x2="102.106" y2="76.6993" gradientUnits="userSpaceOnUse">
<stop stop-color="#171E27"/>
<stop offset="1" stop-color="#A9C2CB"/>
</linearGradient>
<linearGradient id="paint6_linear_0_187" x1="121.272" y1="76.6993" x2="124.095" y2="76.6993" gradientUnits="userSpaceOnUse">
<stop stop-color="#171E27"/>
<stop offset="1" stop-color="#A9C2CB"/>
</linearGradient>
<clipPath id="clip0_0_187">
<rect width="95" height="49" fill="white" transform="translate(36 63)"/>
</clipPath>
<clipPath id="clip1_0_187">
<rect width="47" height="47" fill="white" transform="translate(137 64)"/>
</clipPath>
</defs>
</svg>
