<svg width="200" height="151" viewBox="0 0 200 151" fill="none" xmlns="http://www.w3.org/2000/svg">
<g filter="url(#filter0_dd_0_228)">
<rect x="27" y="7" width="149" height="97" rx="24" fill="white"/>
</g>
<path d="M84.078 41V30.57H90.952V32.04H85.73V35.036H90.672V36.506H85.73V39.53H90.952V41H84.078ZM91.5762 41L94.2222 37.206L91.5762 33.426H93.4382L95.6082 36.59H94.7122L96.8822 33.426H98.7442L96.0842 37.206L98.7302 41H96.8682L94.7262 37.822H95.5942L93.4382 41H91.5762ZM103.107 41.168C102.351 41.168 101.679 40.9953 101.091 40.65C100.512 40.2953 100.06 39.8193 99.733 39.222C99.4063 38.6153 99.243 37.9387 99.243 37.192C99.243 36.4267 99.4063 35.75 99.733 35.162C100.069 34.574 100.517 34.112 101.077 33.776C101.637 33.4307 102.272 33.258 102.981 33.258C103.55 33.258 104.059 33.356 104.507 33.552C104.955 33.748 105.333 34.0187 105.641 34.364C105.949 34.7 106.182 35.0873 106.341 35.526C106.509 35.9647 106.593 36.4313 106.593 36.926C106.593 37.0473 106.588 37.1733 106.579 37.304C106.57 37.4347 106.551 37.556 106.523 37.668H100.489V36.408H105.627L104.871 36.982C104.964 36.5247 104.932 36.1187 104.773 35.764C104.624 35.4 104.39 35.1153 104.073 34.91C103.765 34.6953 103.401 34.588 102.981 34.588C102.561 34.588 102.188 34.6953 101.861 34.91C101.534 35.1153 101.282 35.414 101.105 35.806C100.928 36.1887 100.858 36.6553 100.895 37.206C100.848 37.7193 100.918 38.1673 101.105 38.55C101.301 38.9327 101.572 39.2313 101.917 39.446C102.272 39.6607 102.673 39.768 103.121 39.768C103.578 39.768 103.966 39.6653 104.283 39.46C104.61 39.2547 104.866 38.9887 105.053 38.662L106.341 39.292C106.192 39.6467 105.958 39.9687 105.641 40.258C105.333 40.538 104.96 40.762 104.521 40.93C104.092 41.0887 103.62 41.168 103.107 41.168ZM108.137 41V33.426H109.649V34.952L109.509 34.728C109.677 34.2333 109.948 33.8787 110.321 33.664C110.694 33.44 111.142 33.328 111.665 33.328H112.127V34.77H111.469C110.946 34.77 110.522 34.9333 110.195 35.26C109.878 35.5773 109.719 36.0347 109.719 36.632V41H108.137ZM116.807 41.168C116.051 41.168 115.379 40.9953 114.791 40.65C114.212 40.2953 113.75 39.8193 113.405 39.222C113.069 38.6247 112.901 37.948 112.901 37.192C112.901 36.4453 113.069 35.7733 113.405 35.176C113.741 34.5787 114.203 34.112 114.791 33.776C115.379 33.4307 116.051 33.258 116.807 33.258C117.32 33.258 117.801 33.3513 118.249 33.538C118.697 33.7153 119.084 33.9627 119.411 34.28C119.747 34.5973 119.994 34.966 120.153 35.386L118.767 36.03C118.608 35.638 118.352 35.3253 117.997 35.092C117.652 34.8493 117.255 34.728 116.807 34.728C116.378 34.728 115.99 34.8353 115.645 35.05C115.309 35.2553 115.043 35.5493 114.847 35.932C114.651 36.3053 114.553 36.73 114.553 37.206C114.553 37.682 114.651 38.1113 114.847 38.494C115.043 38.8673 115.309 39.1613 115.645 39.376C115.99 39.5907 116.378 39.698 116.807 39.698C117.264 39.698 117.661 39.5813 117.997 39.348C118.342 39.1053 118.599 38.7833 118.767 38.382L120.153 39.04C120.004 39.4413 119.761 39.8053 119.425 40.132C119.098 40.4493 118.711 40.7013 118.263 40.888C117.815 41.0747 117.33 41.168 116.807 41.168ZM121.699 41V33.426H123.281V41H121.699ZM121.699 32.39V30.57H123.281V32.39H121.699ZM127.931 41.168C127.156 41.168 126.475 40.9767 125.887 40.594C125.308 40.2113 124.902 39.698 124.669 39.054L125.887 38.48C126.092 38.9093 126.372 39.25 126.727 39.502C127.091 39.754 127.492 39.88 127.931 39.88C128.304 39.88 128.608 39.796 128.841 39.628C129.074 39.46 129.191 39.2313 129.191 38.942C129.191 38.7553 129.14 38.606 129.037 38.494C128.934 38.3727 128.804 38.2747 128.645 38.2C128.496 38.1253 128.342 38.0693 128.183 38.032L126.993 37.696C126.34 37.5093 125.85 37.2293 125.523 36.856C125.206 36.4733 125.047 36.03 125.047 35.526C125.047 35.0687 125.164 34.672 125.397 34.336C125.63 33.9907 125.952 33.7247 126.363 33.538C126.774 33.3513 127.236 33.258 127.749 33.258C128.44 33.258 129.056 33.4307 129.597 33.776C130.138 34.112 130.521 34.5833 130.745 35.19L129.527 35.764C129.378 35.4 129.14 35.1107 128.813 34.896C128.496 34.6813 128.136 34.574 127.735 34.574C127.39 34.574 127.114 34.658 126.909 34.826C126.704 34.9847 126.601 35.1947 126.601 35.456C126.601 35.6333 126.648 35.7827 126.741 35.904C126.834 36.016 126.956 36.1093 127.105 36.184C127.254 36.2493 127.408 36.3053 127.567 36.352L128.799 36.716C129.424 36.8933 129.905 37.1733 130.241 37.556C130.577 37.9293 130.745 38.3773 130.745 38.9C130.745 39.348 130.624 39.7447 130.381 40.09C130.148 40.426 129.821 40.692 129.401 40.888C128.981 41.0747 128.491 41.168 127.931 41.168ZM132.295 41V33.426H133.877V41H132.295ZM132.295 32.39V30.57H133.877V32.39H132.295ZM135.727 41V33.426H137.239V34.91L137.057 34.714C137.243 34.238 137.542 33.8787 137.953 33.636C138.363 33.384 138.839 33.258 139.381 33.258C139.941 33.258 140.435 33.3793 140.865 33.622C141.294 33.8647 141.63 34.2007 141.873 34.63C142.115 35.0593 142.237 35.554 142.237 36.114V41H140.669V36.534C140.669 36.1513 140.599 35.8293 140.459 35.568C140.319 35.2973 140.118 35.092 139.857 34.952C139.605 34.8027 139.315 34.728 138.989 34.728C138.662 34.728 138.368 34.8027 138.107 34.952C137.855 35.092 137.659 35.2973 137.519 35.568C137.379 35.8387 137.309 36.1607 137.309 36.534V41H135.727ZM147.584 44.08C147.033 44.08 146.525 43.9913 146.058 43.814C145.591 43.6367 145.19 43.3893 144.854 43.072C144.518 42.764 144.266 42.4 144.098 41.98L145.554 41.378C145.685 41.7327 145.923 42.0267 146.268 42.26C146.623 42.4933 147.057 42.61 147.57 42.61C147.971 42.61 148.331 42.5307 148.648 42.372C148.965 42.2227 149.217 41.9987 149.404 41.7C149.591 41.4107 149.684 41.0607 149.684 40.65V38.942L149.964 39.264C149.703 39.7493 149.339 40.118 148.872 40.37C148.415 40.622 147.897 40.748 147.318 40.748C146.618 40.748 145.988 40.5847 145.428 40.258C144.868 39.9313 144.425 39.4833 144.098 38.914C143.781 38.3447 143.622 37.7053 143.622 36.996C143.622 36.2773 143.781 35.638 144.098 35.078C144.425 34.518 144.863 34.0747 145.414 33.748C145.965 33.4213 146.595 33.258 147.304 33.258C147.883 33.258 148.396 33.384 148.844 33.636C149.301 33.8787 149.675 34.2333 149.964 34.7L149.754 35.092V33.426H151.252V40.65C151.252 41.3033 151.093 41.8867 150.776 42.4C150.468 42.9227 150.039 43.3333 149.488 43.632C148.937 43.9307 148.303 44.08 147.584 44.08ZM147.5 39.278C147.92 39.278 148.293 39.18 148.62 38.984C148.947 38.7787 149.203 38.508 149.39 38.172C149.586 37.8267 149.684 37.4393 149.684 37.01C149.684 36.5807 149.586 36.1933 149.39 35.848C149.194 35.5027 148.933 35.232 148.606 35.036C148.279 34.8307 147.911 34.728 147.5 34.728C147.071 34.728 146.688 34.8307 146.352 35.036C146.016 35.232 145.75 35.5027 145.554 35.848C145.367 36.184 145.274 36.5713 145.274 37.01C145.274 37.43 145.367 37.8127 145.554 38.158C145.75 38.5033 146.016 38.7787 146.352 38.984C146.688 39.18 147.071 39.278 147.5 39.278Z" fill="#020305"/>
<rect x="39" y="19" width="32" height="32" rx="12" fill="#A9C2CB"/>
<g filter="url(#filter1_d_0_228)">
<path d="M55.612 29.1619L55 29.8194L54.388 29.1619C52.6979 27.3461 49.9577 27.3461 48.2676 29.1619C46.5775 30.9776 46.5775 33.9216 48.2676 35.7374L53.7759 41.6553C54.452 42.3816 55.548 42.3816 56.2241 41.6553L61.7324 35.7374C63.4225 33.9216 63.4225 30.9777 61.7324 29.1619C60.0423 27.3461 57.3021 27.3461 55.612 29.1619Z" fill="white"/>
</g>
<g clip-path="url(#clip0_0_228)">
<path d="M39.7571 89.9588C39.7571 89.9588 41.7566 91.9543 48.4153 88.8502C55.0739 85.7461 51.7478 91.2239 54.8862 90.5914C58.0247 89.9588 58.2123 86.8156 61.0466 87.885C63.8809 88.9545 63.5444 91.5109 65.874 88.2959C68.2035 85.0809 68.3718 63.7629 68.3718 63.7629L70.0413 89.1958C70.0413 89.1958 76.5123 92.2999 81.3655 84.3114C86.2187 76.3229 89.8554 82.8702 90.1919 86.196C90.5284 89.5219 95.3687 92.0652 98.0153 88.4198C98.0153 88.4198 99.8531 86.6395 102.014 90.1936C104.176 93.7477 106.68 87.1938 106.68 87.1938C106.68 87.1938 109.844 85.8895 111.009 90.3044L115.338 63.776L117.836 89.9718C119.551 90.3685 121.348 90.1803 122.945 89.4367C124.543 88.6932 125.85 87.4364 126.662 85.8635C129.827 80.203 134.492 78.3184 138.155 86.8612C138.155 86.8612 141.474 93.7216 149.02 87.8394C149.02 87.8394 153.705 84.3962 156.571 88.7263H163.211" stroke="url(#paint0_linear_0_228)" stroke-width="2.34" stroke-linecap="round" stroke-linejoin="round"/>
</g>
<defs>
<filter id="filter0_dd_0_228" x="0" y="0" width="203" height="151" filterUnits="userSpaceOnUse" color-interpolation-filters="sRGB">
<feFlood flood-opacity="0" result="BackgroundImageFix"/>
<feColorMatrix in="SourceAlpha" type="matrix" values="0 0 0 0 0 0 0 0 0 0 0 0 0 0 0 0 0 0 127 0" result="hardAlpha"/>
<feOffset dy="4"/>
<feGaussianBlur stdDeviation="2"/>
<feComposite in2="hardAlpha" operator="out"/>
<feColorMatrix type="matrix" values="0 0 0 0 1 0 0 0 0 1 0 0 0 0 1 0 0 0 0.25 0"/>
<feBlend mode="normal" in2="BackgroundImageFix" result="effect1_dropShadow_0_228"/>
<feColorMatrix in="SourceAlpha" type="matrix" values="0 0 0 0 0 0 0 0 0 0 0 0 0 0 0 0 0 0 127 0" result="hardAlpha"/>
<feMorphology radius="12" operator="erode" in="SourceAlpha" result="effect2_dropShadow_0_228"/>
<feOffset dy="20"/>
<feGaussianBlur stdDeviation="19.5"/>
<feComposite in2="hardAlpha" operator="out"/>
<feColorMatrix type="matrix" values="0 0 0 0 0.388235 0 0 0 0 0.458824 0 0 0 0 0.486275 0 0 0 0.4 0"/>
<feBlend mode="normal" in2="effect1_dropShadow_0_228" result="effect2_dropShadow_0_228"/>
<feBlend mode="normal" in="SourceGraphic" in2="effect2_dropShadow_0_228" result="shape"/>
</filter>
<filter id="filter1_d_0_228" x="40" y="24.8" width="30" height="28.4" filterUnits="userSpaceOnUse" color-interpolation-filters="sRGB">
<feFlood flood-opacity="0" result="BackgroundImageFix"/>
<feColorMatrix in="SourceAlpha" type="matrix" values="0 0 0 0 0 0 0 0 0 0 0 0 0 0 0 0 0 0 127 0" result="hardAlpha"/>
<feOffset dy="4"/>
<feGaussianBlur stdDeviation="3.5"/>
<feComposite in2="hardAlpha" operator="out"/>
<feColorMatrix type="matrix" values="0 0 0 0 0.388451 0 0 0 0 0.459239 0 0 0 0 0.484722 0 0 0 0.8 0"/>
<feBlend mode="normal" in2="BackgroundImageFix" result="effect1_dropShadow_0_228"/>
<feBlend mode="normal" in="SourceGraphic" in2="effect1_dropShadow_0_228" result="shape"/>
</filter>
<linearGradient id="paint0_linear_0_228" x1="39" y1="77.4967" x2="163.994" y2="77.4967" gradientUnits="userSpaceOnUse">
<stop stop-color="#171E27"/>
<stop offset="1" stop-color="#A9C2CB"/>
</linearGradient>
<clipPath id="clip0_0_228">
<rect width="125" height="29" fill="white" transform="translate(39 63)"/>
</clipPath>
</defs>
</svg>
