<svg width="372" height="142" viewBox="0 0 372 142" fill="none" xmlns="http://www.w3.org/2000/svg">
<g filter="url(#filter0_d_0_237)">
<rect x="27" y="7" width="318" height="88" rx="24" fill="#020305"/>
</g>
<path d="M87.672 80.192C87.0107 80.192 86.3813 80.0693 85.784 79.824C85.1867 79.568 84.68 79.2107 84.264 78.752C83.848 78.2933 83.5707 77.7547 83.432 77.136L85.624 76.4C85.8053 76.912 86.072 77.3013 86.424 77.568C86.776 77.824 87.192 77.952 87.672 77.952C88.0667 77.952 88.4027 77.8773 88.68 77.728C88.968 77.5787 89.192 77.3707 89.352 77.104C89.512 76.8267 89.592 76.5067 89.592 76.144C89.592 75.7813 89.512 75.472 89.352 75.216C89.2027 74.9493 88.984 74.7467 88.696 74.608C88.4187 74.4587 88.0773 74.384 87.672 74.384C87.4373 74.384 87.2027 74.4107 86.968 74.464C86.7333 74.5173 86.52 74.592 86.328 74.688L85.752 73.488L88.808 70.16H84.152V68.08H91.592V70L88.456 73.568L88.536 72.56C89.2507 72.56 89.8693 72.7093 90.392 73.008C90.9253 73.296 91.336 73.7013 91.624 74.224C91.9227 74.7467 92.072 75.3547 92.072 76.048C92.072 76.8373 91.88 77.5467 91.496 78.176C91.112 78.8053 90.5893 79.3013 89.928 79.664C89.2667 80.016 88.5147 80.192 87.672 80.192ZM105.517 80.192C104.888 80.192 104.28 80.0747 103.693 79.84C103.106 79.5947 102.605 79.2533 102.189 78.816C101.773 78.368 101.501 77.8347 101.373 77.216L103.565 76.48C103.725 76.992 103.981 77.3653 104.333 77.6C104.685 77.8347 105.08 77.952 105.517 77.952C105.89 77.952 106.216 77.8773 106.493 77.728C106.77 77.568 106.984 77.3493 107.133 77.072C107.293 76.784 107.373 76.4533 107.373 76.08C107.373 75.7067 107.293 75.3813 107.133 75.104C106.984 74.8267 106.77 74.6133 106.493 74.464C106.216 74.304 105.89 74.224 105.517 74.224C105.133 74.224 104.792 74.3093 104.493 74.48C104.194 74.64 103.976 74.8907 103.837 75.232L101.805 74.752L102.765 68.08H109.421V70.16H103.773L104.701 69.04L104.045 74L103.373 73.408C103.64 72.9707 103.976 72.6507 104.381 72.448C104.797 72.2453 105.33 72.144 105.981 72.144C106.781 72.144 107.469 72.3147 108.045 72.656C108.621 72.9867 109.064 73.4453 109.373 74.032C109.693 74.6187 109.853 75.3013 109.853 76.08C109.853 76.8587 109.661 77.5627 109.277 78.192C108.904 78.8107 108.392 79.3013 107.741 79.664C107.09 80.016 106.349 80.192 105.517 80.192ZM119.297 80V78.08L122.497 74.784C123.126 74.1333 123.601 73.6213 123.921 73.248C124.252 72.864 124.476 72.544 124.593 72.288C124.721 72.032 124.785 71.7813 124.785 71.536C124.785 71.0987 124.641 70.7573 124.353 70.512C124.076 70.256 123.724 70.128 123.297 70.128C122.86 70.128 122.47 70.256 122.129 70.512C121.788 70.7573 121.537 71.136 121.377 71.648L119.217 70.944C119.345 70.3253 119.612 69.7867 120.017 69.328C120.422 68.8693 120.913 68.5173 121.489 68.272C122.065 68.016 122.668 67.888 123.297 67.888C124.086 67.888 124.78 68.0267 125.377 68.304C125.974 68.5813 126.438 68.9707 126.769 69.472C127.1 69.9733 127.265 70.56 127.265 71.232C127.265 71.6587 127.19 72.08 127.041 72.496C126.892 72.9013 126.662 73.3173 126.353 73.744C126.054 74.16 125.665 74.6133 125.185 75.104L122.449 77.92H127.377V80H119.297ZM137.212 80V68.08H141.1C142.391 68.08 143.511 68.336 144.46 68.848C145.41 69.36 146.146 70.064 146.668 70.96C147.191 71.856 147.452 72.88 147.452 74.032C147.452 75.184 147.191 76.2133 146.668 77.12C146.146 78.016 145.41 78.72 144.46 79.232C143.511 79.744 142.391 80 141.1 80H137.212ZM139.692 77.84H141.164C141.943 77.84 142.615 77.6853 143.18 77.376C143.746 77.056 144.183 76.6133 144.492 76.048C144.812 75.472 144.972 74.8 144.972 74.032C144.972 73.2533 144.812 72.5813 144.492 72.016C144.183 71.4507 143.746 71.0133 143.18 70.704C142.615 70.3947 141.943 70.24 141.164 70.24H139.692V77.84ZM171.579 80.192C170.95 80.192 170.342 80.0747 169.755 79.84C169.169 79.5947 168.667 79.2533 168.251 78.816C167.835 78.368 167.563 77.8347 167.435 77.216L169.627 76.48C169.787 76.992 170.043 77.3653 170.395 77.6C170.747 77.8347 171.142 77.952 171.579 77.952C171.953 77.952 172.278 77.8773 172.555 77.728C172.833 77.568 173.046 77.3493 173.195 77.072C173.355 76.784 173.435 76.4533 173.435 76.08C173.435 75.7067 173.355 75.3813 173.195 75.104C173.046 74.8267 172.833 74.6133 172.555 74.464C172.278 74.304 171.953 74.224 171.579 74.224C171.195 74.224 170.854 74.3093 170.555 74.48C170.257 74.64 170.038 74.8907 169.899 75.232L167.867 74.752L168.827 68.08H175.483V70.16H169.835L170.763 69.04L170.107 74L169.435 73.408C169.702 72.9707 170.038 72.6507 170.443 72.448C170.859 72.2453 171.393 72.144 172.043 72.144C172.843 72.144 173.531 72.3147 174.107 72.656C174.683 72.9867 175.126 73.4453 175.435 74.032C175.755 74.6187 175.915 75.3013 175.915 76.08C175.915 76.8587 175.723 77.5627 175.339 78.192C174.966 78.8107 174.454 79.3013 173.803 79.664C173.153 80.016 172.411 80.192 171.579 80.192ZM185.743 80V68.08H188.224V73.232H192.864V68.08H195.344V80H192.864V75.392H188.224V80H185.743ZM221.073 80V77.44H215.793V75.36L220.913 68.08H223.553V75.36H225.393V77.44H223.553V80H221.073ZM217.601 76.256L217.137 75.36H221.073V70L221.697 70.192L217.601 76.256ZM235.107 80L239.123 74.864L239.523 75.424C239.374 75.488 239.23 75.5467 239.091 75.6C238.963 75.6427 238.83 75.6747 238.691 75.696C238.552 75.7173 238.408 75.728 238.259 75.728C237.523 75.728 236.867 75.5627 236.291 75.232C235.726 74.9013 235.278 74.4533 234.947 73.888C234.627 73.312 234.467 72.6667 234.467 71.952C234.467 71.1627 234.648 70.464 235.011 69.856C235.374 69.248 235.875 68.768 236.515 68.416C237.155 68.064 237.886 67.888 238.707 67.888C239.539 67.888 240.27 68.064 240.899 68.416C241.539 68.7573 242.04 69.2267 242.403 69.824C242.766 70.4107 242.947 71.0827 242.947 71.84C242.947 72.2133 242.91 72.5867 242.835 72.96C242.76 73.3333 242.611 73.744 242.387 74.192C242.163 74.6293 241.827 75.1413 241.379 75.728L238.067 80H235.107ZM238.707 73.696C239.038 73.696 239.331 73.6213 239.587 73.472C239.854 73.3227 240.067 73.1147 240.227 72.848C240.387 72.5813 240.467 72.272 240.467 71.92C240.467 71.5573 240.387 71.2427 240.227 70.976C240.067 70.7093 239.854 70.5013 239.587 70.352C239.331 70.2027 239.038 70.128 238.707 70.128C238.387 70.128 238.094 70.2027 237.827 70.352C237.56 70.5013 237.347 70.7093 237.187 70.976C237.027 71.2427 236.947 71.5573 236.947 71.92C236.947 72.272 237.027 72.5813 237.187 72.848C237.347 73.1147 237.56 73.3227 237.827 73.472C238.094 73.6213 238.387 73.696 238.707 73.696ZM252.587 80V68.08H254.987L259.451 74H258.331L262.667 68.08H265.067V80H262.587V70.816L263.579 71.04L258.987 76.96H258.667L254.235 71.04L255.067 70.816V80H252.587ZM285.672 80V78.08L288.872 74.784C289.501 74.1333 289.976 73.6213 290.296 73.248C290.627 72.864 290.851 72.544 290.968 72.288C291.096 72.032 291.16 71.7813 291.16 71.536C291.16 71.0987 291.016 70.7573 290.728 70.512C290.451 70.256 290.099 70.128 289.672 70.128C289.235 70.128 288.845 70.256 288.504 70.512C288.163 70.7573 287.912 71.136 287.752 71.648L285.592 70.944C285.72 70.3253 285.987 69.7867 286.392 69.328C286.797 68.8693 287.288 68.5173 287.864 68.272C288.44 68.016 289.043 67.888 289.672 67.888C290.461 67.888 291.155 68.0267 291.752 68.304C292.349 68.5813 292.813 68.9707 293.144 69.472C293.475 69.9733 293.64 70.56 293.64 71.232C293.64 71.6587 293.565 72.08 293.416 72.496C293.267 72.9013 293.037 73.3173 292.728 73.744C292.429 74.16 292.04 74.6133 291.56 75.104L288.824 77.92H293.752V80H285.672ZM308.131 80.192C307.182 80.192 306.345 79.936 305.619 79.424C304.905 78.912 304.345 78.192 303.939 77.264C303.534 76.336 303.331 75.2587 303.331 74.032C303.331 72.7947 303.529 71.7173 303.923 70.8C304.329 69.8827 304.889 69.168 305.603 68.656C306.329 68.144 307.166 67.888 308.115 67.888C309.086 67.888 309.929 68.144 310.643 68.656C311.369 69.168 311.929 69.888 312.323 70.816C312.729 71.7333 312.931 72.8053 312.931 74.032C312.931 75.2587 312.729 76.336 312.323 77.264C311.929 78.1813 311.369 78.9013 310.643 79.424C309.929 79.936 309.091 80.192 308.131 80.192ZM308.147 77.952C308.638 77.952 309.054 77.7973 309.395 77.488C309.737 77.1787 309.998 76.7307 310.179 76.144C310.361 75.5573 310.451 74.8533 310.451 74.032C310.451 73.2107 310.361 72.512 310.179 71.936C309.998 71.3493 309.731 70.9013 309.379 70.592C309.038 70.2827 308.617 70.128 308.115 70.128C307.625 70.128 307.209 70.2827 306.867 70.592C306.526 70.9013 306.265 71.3493 306.083 71.936C305.902 72.512 305.811 73.2107 305.811 74.032C305.811 74.8427 305.902 75.5413 306.083 76.128C306.265 76.7147 306.526 77.168 306.867 77.488C307.219 77.7973 307.646 77.952 308.147 77.952ZM327.126 80.192C326.38 80.192 325.676 80.0587 325.014 79.792C324.364 79.5147 323.798 79.1253 323.318 78.624C322.849 78.1227 322.497 77.5307 322.262 76.848L324.294 75.936C324.593 76.5867 325.004 77.0987 325.526 77.472C326.06 77.8453 326.646 78.032 327.286 78.032C327.628 78.032 327.921 77.9787 328.166 77.872C328.412 77.7653 328.604 77.6213 328.742 77.44C328.881 77.248 328.95 77.024 328.95 76.768C328.95 76.4907 328.865 76.256 328.694 76.064C328.524 75.8613 328.257 75.7013 327.894 75.584L325.558 74.816C324.609 74.5067 323.894 74.0693 323.414 73.504C322.934 72.928 322.694 72.24 322.694 71.44C322.694 70.736 322.865 70.1173 323.206 69.584C323.558 69.0507 324.044 68.6347 324.662 68.336C325.292 68.0373 326.012 67.888 326.822 67.888C327.537 67.888 328.198 68.0107 328.806 68.256C329.414 68.5013 329.937 68.848 330.374 69.296C330.822 69.744 331.158 70.2827 331.382 70.912L329.366 71.824C329.142 71.2693 328.806 70.8373 328.358 70.528C327.91 70.208 327.398 70.048 326.822 70.048C326.492 70.048 326.198 70.1013 325.942 70.208C325.686 70.3147 325.489 70.4693 325.35 70.672C325.212 70.864 325.142 71.088 325.142 71.344C325.142 71.6213 325.233 71.8667 325.414 72.08C325.596 72.2827 325.868 72.4427 326.23 72.56L328.518 73.296C329.478 73.6053 330.193 74.0373 330.662 74.592C331.142 75.1467 331.382 75.824 331.382 76.624C331.382 77.3173 331.201 77.936 330.838 78.48C330.476 79.0133 329.974 79.4347 329.334 79.744C328.705 80.0427 327.969 80.192 327.126 80.192Z" fill="white"/>
<path d="M85.926 41V32.04H83.154V30.57H90.294V32.04H87.564V41H85.926ZM94.0448 41.168C93.3168 41.168 92.6495 40.9953 92.0428 40.65C91.4455 40.3047 90.9695 39.8333 90.6148 39.236C90.2601 38.6387 90.0828 37.962 90.0828 37.206C90.0828 36.4407 90.2601 35.764 90.6148 35.176C90.9695 34.5787 91.4455 34.112 92.0428 33.776C92.6401 33.4307 93.3075 33.258 94.0448 33.258C94.7915 33.258 95.4588 33.4307 96.0468 33.776C96.6441 34.112 97.1155 34.5787 97.4608 35.176C97.8155 35.764 97.9928 36.4407 97.9928 37.206C97.9928 37.9713 97.8155 38.6527 97.4608 39.25C97.1061 39.8473 96.6301 40.3187 96.0328 40.664C95.4355 41 94.7728 41.168 94.0448 41.168ZM94.0448 39.698C94.4928 39.698 94.8895 39.5907 95.2348 39.376C95.5801 39.1613 95.8508 38.8673 96.0468 38.494C96.2521 38.1113 96.3548 37.682 96.3548 37.206C96.3548 36.73 96.2521 36.3053 96.0468 35.932C95.8508 35.5587 95.5801 35.2647 95.2348 35.05C94.8895 34.8353 94.4928 34.728 94.0448 34.728C93.6061 34.728 93.2095 34.8353 92.8548 35.05C92.5095 35.2647 92.2341 35.5587 92.0288 35.932C91.8328 36.3053 91.7348 36.73 91.7348 37.206C91.7348 37.682 91.8328 38.1113 92.0288 38.494C92.2341 38.8673 92.5095 39.1613 92.8548 39.376C93.2095 39.5907 93.6061 39.698 94.0448 39.698ZM102.677 41.084C101.883 41.084 101.267 40.86 100.829 40.412C100.39 39.964 100.171 39.334 100.171 38.522V34.854H98.8406V33.426H99.0506C99.4052 33.426 99.6806 33.3233 99.8766 33.118C100.073 32.9127 100.171 32.6327 100.171 32.278V31.69H101.753V33.426H103.475V34.854H101.753V38.452C101.753 38.7133 101.795 38.9373 101.879 39.124C101.963 39.3013 102.098 39.4413 102.285 39.544C102.471 39.6373 102.714 39.684 103.013 39.684C103.087 39.684 103.171 39.6793 103.265 39.67C103.358 39.6607 103.447 39.6513 103.531 39.642V41C103.4 41.0187 103.255 41.0373 103.097 41.056C102.938 41.0747 102.798 41.084 102.677 41.084ZM107.274 41.168C106.761 41.168 106.308 41.0793 105.916 40.902C105.533 40.7153 105.235 40.4633 105.02 40.146C104.805 39.8193 104.698 39.4367 104.698 38.998C104.698 38.5873 104.787 38.2187 104.964 37.892C105.151 37.5653 105.435 37.29 105.818 37.066C106.201 36.842 106.681 36.6833 107.26 36.59L109.892 36.156V37.402L107.568 37.808C107.148 37.8827 106.84 38.018 106.644 38.214C106.448 38.4007 106.35 38.6433 106.35 38.942C106.35 39.2313 106.457 39.4693 106.672 39.656C106.896 39.8333 107.181 39.922 107.526 39.922C107.955 39.922 108.329 39.8287 108.646 39.642C108.973 39.4553 109.225 39.208 109.402 38.9C109.579 38.5827 109.668 38.2327 109.668 37.85V35.904C109.668 35.5307 109.528 35.2273 109.248 34.994C108.977 34.7513 108.613 34.63 108.156 34.63C107.736 34.63 107.367 34.742 107.05 34.966C106.742 35.1807 106.513 35.4607 106.364 35.806L105.048 35.148C105.188 34.7747 105.417 34.448 105.734 34.168C106.051 33.8787 106.42 33.6547 106.84 33.496C107.269 33.3373 107.722 33.258 108.198 33.258C108.795 33.258 109.323 33.37 109.78 33.594C110.247 33.818 110.606 34.1307 110.858 34.532C111.119 34.924 111.25 35.3813 111.25 35.904V41H109.738V39.628L110.06 39.67C109.883 39.978 109.654 40.244 109.374 40.468C109.103 40.692 108.791 40.8647 108.436 40.986C108.091 41.1073 107.703 41.168 107.274 41.168ZM113.1 41V30.402H114.682V41H113.1ZM122.255 41.084C121.461 41.084 120.845 40.86 120.407 40.412C119.968 39.964 119.749 39.334 119.749 38.522V34.854H118.419V33.426H118.629C118.983 33.426 119.259 33.3233 119.455 33.118C119.651 32.9127 119.749 32.6327 119.749 32.278V31.69H121.331V33.426H123.053V34.854H121.331V38.452C121.331 38.7133 121.373 38.9373 121.457 39.124C121.541 39.3013 121.676 39.4413 121.863 39.544C122.049 39.6373 122.292 39.684 122.591 39.684C122.665 39.684 122.749 39.6793 122.843 39.67C122.936 39.6607 123.025 39.6513 123.109 39.642V41C122.978 41.0187 122.833 41.0373 122.675 41.056C122.516 41.0747 122.376 41.084 122.255 41.084ZM124.653 41V33.426H126.235V41H124.653ZM124.653 32.39V30.57H126.235V32.39H124.653ZM128.084 41V33.426H129.596V35.064L129.4 34.812C129.559 34.2987 129.848 33.9113 130.268 33.65C130.688 33.3887 131.169 33.258 131.71 33.258C132.317 33.258 132.853 33.4213 133.32 33.748C133.796 34.0653 134.113 34.49 134.272 35.022L133.824 35.064C134.048 34.4573 134.389 34.0047 134.846 33.706C135.313 33.4073 135.845 33.258 136.442 33.258C136.965 33.258 137.436 33.3793 137.856 33.622C138.285 33.8647 138.626 34.2007 138.878 34.63C139.13 35.0593 139.256 35.5493 139.256 36.1V41H137.674V36.534C137.674 36.1513 137.604 35.8293 137.464 35.568C137.333 35.2973 137.147 35.092 136.904 34.952C136.671 34.8027 136.395 34.728 136.078 34.728C135.761 34.728 135.481 34.8027 135.238 34.952C134.995 35.092 134.804 35.2973 134.664 35.568C134.524 35.8387 134.454 36.1607 134.454 36.534V41H132.886V36.534C132.886 36.1513 132.816 35.8293 132.676 35.568C132.545 35.2973 132.359 35.092 132.116 34.952C131.883 34.8027 131.603 34.728 131.276 34.728C130.959 34.728 130.679 34.8027 130.436 34.952C130.193 35.092 130.002 35.2973 129.862 35.568C129.731 35.8387 129.666 36.1607 129.666 36.534V41H128.084ZM144.505 41.168C143.749 41.168 143.077 40.9953 142.489 40.65C141.911 40.2953 141.458 39.8193 141.131 39.222C140.805 38.6153 140.641 37.9387 140.641 37.192C140.641 36.4267 140.805 35.75 141.131 35.162C141.467 34.574 141.915 34.112 142.475 33.776C143.035 33.4307 143.67 33.258 144.379 33.258C144.949 33.258 145.457 33.356 145.905 33.552C146.353 33.748 146.731 34.0187 147.039 34.364C147.347 34.7 147.581 35.0873 147.739 35.526C147.907 35.9647 147.991 36.4313 147.991 36.926C147.991 37.0473 147.987 37.1733 147.977 37.304C147.968 37.4347 147.949 37.556 147.921 37.668H141.887V36.408H147.025L146.269 36.982C146.363 36.5247 146.33 36.1187 146.171 35.764C146.022 35.4 145.789 35.1153 145.471 34.91C145.163 34.6953 144.799 34.588 144.379 34.588C143.959 34.588 143.586 34.6953 143.259 34.91C142.933 35.1153 142.681 35.414 142.503 35.806C142.326 36.1887 142.256 36.6553 142.293 37.206C142.247 37.7193 142.317 38.1673 142.503 38.55C142.699 38.9327 142.97 39.2313 143.315 39.446C143.67 39.6607 144.071 39.768 144.519 39.768C144.977 39.768 145.364 39.6653 145.681 39.46C146.008 39.2547 146.265 38.9887 146.451 38.662L147.739 39.292C147.59 39.6467 147.357 39.9687 147.039 40.258C146.731 40.538 146.358 40.762 145.919 40.93C145.49 41.0887 145.019 41.168 144.505 41.168ZM151.983 41V33.426H153.565V41H151.983ZM151.983 32.39V30.57H153.565V32.39H151.983ZM155.414 41V33.426H156.926V34.91L156.744 34.714C156.931 34.238 157.23 33.8787 157.64 33.636C158.051 33.384 158.527 33.258 159.068 33.258C159.628 33.258 160.123 33.3793 160.552 33.622C160.982 33.8647 161.318 34.2007 161.56 34.63C161.803 35.0593 161.924 35.554 161.924 36.114V41H160.356V36.534C160.356 36.1513 160.286 35.8293 160.146 35.568C160.006 35.2973 159.806 35.092 159.544 34.952C159.292 34.8027 159.003 34.728 158.676 34.728C158.35 34.728 158.056 34.8027 157.794 34.952C157.542 35.092 157.346 35.2973 157.206 35.568C157.066 35.8387 156.996 36.1607 156.996 36.534V41H155.414ZM168.865 41.168C168.09 41.168 167.409 40.9767 166.821 40.594C166.242 40.2113 165.836 39.698 165.603 39.054L166.821 38.48C167.026 38.9093 167.306 39.25 167.661 39.502C168.025 39.754 168.426 39.88 168.865 39.88C169.238 39.88 169.541 39.796 169.775 39.628C170.008 39.46 170.125 39.2313 170.125 38.942C170.125 38.7553 170.073 38.606 169.971 38.494C169.868 38.3727 169.737 38.2747 169.579 38.2C169.429 38.1253 169.275 38.0693 169.117 38.032L167.927 37.696C167.273 37.5093 166.783 37.2293 166.457 36.856C166.139 36.4733 165.981 36.03 165.981 35.526C165.981 35.0687 166.097 34.672 166.331 34.336C166.564 33.9907 166.886 33.7247 167.297 33.538C167.707 33.3513 168.169 33.258 168.683 33.258C169.373 33.258 169.989 33.4307 170.531 33.776C171.072 34.112 171.455 34.5833 171.679 35.19L170.461 35.764C170.311 35.4 170.073 35.1107 169.747 34.896C169.429 34.6813 169.07 34.574 168.669 34.574C168.323 34.574 168.048 34.658 167.843 34.826C167.637 34.9847 167.535 35.1947 167.535 35.456C167.535 35.6333 167.581 35.7827 167.675 35.904C167.768 36.016 167.889 36.1093 168.039 36.184C168.188 36.2493 168.342 36.3053 168.501 36.352L169.733 36.716C170.358 36.8933 170.839 37.1733 171.175 37.556C171.511 37.9293 171.679 38.3773 171.679 38.9C171.679 39.348 171.557 39.7447 171.315 40.09C171.081 40.426 170.755 40.692 170.335 40.888C169.915 41.0747 169.425 41.168 168.865 41.168ZM173.229 43.8V33.426H174.741V34.994L174.559 34.63C174.839 34.2007 175.212 33.8647 175.679 33.622C176.145 33.3793 176.677 33.258 177.275 33.258C177.993 33.258 178.637 33.4307 179.207 33.776C179.785 34.1213 180.238 34.5927 180.565 35.19C180.901 35.7873 181.069 36.4593 181.069 37.206C181.069 37.9527 180.901 38.6247 180.565 39.222C180.238 39.8193 179.79 40.2953 179.221 40.65C178.651 40.9953 178.003 41.168 177.275 41.168C176.687 41.168 176.15 41.0467 175.665 40.804C175.189 40.5613 174.82 40.2113 174.559 39.754L174.811 39.46V43.8H173.229ZM177.121 39.698C177.569 39.698 177.965 39.5907 178.311 39.376C178.656 39.1613 178.927 38.8673 179.123 38.494C179.328 38.1113 179.431 37.682 179.431 37.206C179.431 36.73 179.328 36.3053 179.123 35.932C178.927 35.5587 178.656 35.2647 178.311 35.05C177.965 34.8353 177.569 34.728 177.121 34.728C176.682 34.728 176.285 34.8353 175.931 35.05C175.585 35.2647 175.31 35.5587 175.105 35.932C174.909 36.3053 174.811 36.73 174.811 37.206C174.811 37.682 174.909 38.1113 175.105 38.494C175.31 38.8673 175.585 39.1613 175.931 39.376C176.285 39.5907 176.682 39.698 177.121 39.698ZM184.876 41.168C184.362 41.168 183.91 41.0793 183.518 40.902C183.135 40.7153 182.836 40.4633 182.622 40.146C182.407 39.8193 182.3 39.4367 182.3 38.998C182.3 38.5873 182.388 38.2187 182.566 37.892C182.752 37.5653 183.037 37.29 183.42 37.066C183.802 36.842 184.283 36.6833 184.862 36.59L187.494 36.156V37.402L185.17 37.808C184.75 37.8827 184.442 38.018 184.246 38.214C184.05 38.4007 183.952 38.6433 183.952 38.942C183.952 39.2313 184.059 39.4693 184.274 39.656C184.498 39.8333 184.782 39.922 185.128 39.922C185.557 39.922 185.93 39.8287 186.248 39.642C186.574 39.4553 186.826 39.208 187.004 38.9C187.181 38.5827 187.27 38.2327 187.27 37.85V35.904C187.27 35.5307 187.13 35.2273 186.85 34.994C186.579 34.7513 186.215 34.63 185.758 34.63C185.338 34.63 184.969 34.742 184.652 34.966C184.344 35.1807 184.115 35.4607 183.966 35.806L182.65 35.148C182.79 34.7747 183.018 34.448 183.336 34.168C183.653 33.8787 184.022 33.6547 184.442 33.496C184.871 33.3373 185.324 33.258 185.8 33.258C186.397 33.258 186.924 33.37 187.382 33.594C187.848 33.818 188.208 34.1307 188.46 34.532C188.721 34.924 188.852 35.3813 188.852 35.904V41H187.34V39.628L187.662 39.67C187.484 39.978 187.256 40.244 186.976 40.468C186.705 40.692 186.392 40.8647 186.038 40.986C185.692 41.1073 185.305 41.168 184.876 41.168ZM194.299 41.168C193.543 41.168 192.871 40.9953 192.283 40.65C191.705 40.2953 191.243 39.8193 190.897 39.222C190.561 38.6247 190.393 37.948 190.393 37.192C190.393 36.4453 190.561 35.7733 190.897 35.176C191.233 34.5787 191.695 34.112 192.283 33.776C192.871 33.4307 193.543 33.258 194.299 33.258C194.813 33.258 195.293 33.3513 195.741 33.538C196.189 33.7153 196.577 33.9627 196.903 34.28C197.239 34.5973 197.487 34.966 197.645 35.386L196.259 36.03C196.101 35.638 195.844 35.3253 195.489 35.092C195.144 34.8493 194.747 34.728 194.299 34.728C193.87 34.728 193.483 34.8353 193.137 35.05C192.801 35.2553 192.535 35.5493 192.339 35.932C192.143 36.3053 192.045 36.73 192.045 37.206C192.045 37.682 192.143 38.1113 192.339 38.494C192.535 38.8673 192.801 39.1613 193.137 39.376C193.483 39.5907 193.87 39.698 194.299 39.698C194.757 39.698 195.153 39.5813 195.489 39.348C195.835 39.1053 196.091 38.7833 196.259 38.382L197.645 39.04C197.496 39.4413 197.253 39.8053 196.917 40.132C196.591 40.4493 196.203 40.7013 195.755 40.888C195.307 41.0747 194.822 41.168 194.299 41.168ZM202.748 41.168C201.992 41.168 201.32 40.9953 200.732 40.65C200.153 40.2953 199.7 39.8193 199.374 39.222C199.047 38.6153 198.884 37.9387 198.884 37.192C198.884 36.4267 199.047 35.75 199.374 35.162C199.71 34.574 200.158 34.112 200.718 33.776C201.278 33.4307 201.912 33.258 202.622 33.258C203.191 33.258 203.7 33.356 204.148 33.552C204.596 33.748 204.974 34.0187 205.282 34.364C205.59 34.7 205.823 35.0873 205.982 35.526C206.15 35.9647 206.234 36.4313 206.234 36.926C206.234 37.0473 206.229 37.1733 206.22 37.304C206.21 37.4347 206.192 37.556 206.164 37.668H200.13V36.408H205.268L204.512 36.982C204.605 36.5247 204.572 36.1187 204.414 35.764C204.264 35.4 204.031 35.1153 203.714 34.91C203.406 34.6953 203.042 34.588 202.622 34.588C202.202 34.588 201.828 34.6953 201.502 34.91C201.175 35.1153 200.923 35.414 200.746 35.806C200.568 36.1887 200.498 36.6553 200.536 37.206C200.489 37.7193 200.559 38.1673 200.746 38.55C200.942 38.9327 201.212 39.2313 201.558 39.446C201.912 39.6607 202.314 39.768 202.762 39.768C203.219 39.768 203.606 39.6653 203.924 39.46C204.25 39.2547 204.507 38.9887 204.694 38.662L205.982 39.292C205.832 39.6467 205.599 39.9687 205.282 40.258C204.974 40.538 204.6 40.762 204.162 40.93C203.732 41.0887 203.261 41.168 202.748 41.168Z" fill="white"/>
<rect x="39" y="19" width="32" height="32" rx="12" fill="#A9C2CB"/>
<g filter="url(#filter1_d_0_237)">
<path fill-rule="evenodd" clip-rule="evenodd" d="M52.8041 28.853C53.5013 28.6558 54.2377 28.55 55 28.55C55.7623 28.55 56.4987 28.6558 57.1959 28.853C57.5944 28.9657 58.0089 28.734 58.1217 28.3354C58.2344 27.9368 58.0027 27.5223 57.6041 27.4096C56.7754 27.1752 55.9017 27.05 55 27.05C54.0983 27.05 53.2246 27.1752 52.3959 27.4096C51.9973 27.5223 51.7656 27.9368 51.8783 28.3354C51.991 28.734 52.4055 28.9657 52.8041 28.853ZM61.8 36.2C61.8 39.9556 58.7555 43 55 43C51.2444 43 48.2 39.9556 48.2 36.2C48.2 32.4445 51.2444 29.4 55 29.4C58.7555 29.4 61.8 32.4445 61.8 36.2ZM55.6 32.6C55.6 32.2687 55.3313 32 55 32C54.6686 32 54.4 32.2687 54.4 32.6V35.5606C54.0413 35.768 53.8 36.1559 53.8 36.6C53.8 37.2628 54.3372 37.8 55 37.8C55.6627 37.8 56.2 37.2628 56.2 36.6C56.2 36.1559 55.9587 35.768 55.6 35.5606V32.6Z" fill="white"/>
</g>
<defs>
<filter id="filter0_d_0_237" x="0" y="0" width="372" height="142" filterUnits="userSpaceOnUse" color-interpolation-filters="sRGB">
<feFlood flood-opacity="0" result="BackgroundImageFix"/>
<feColorMatrix in="SourceAlpha" type="matrix" values="0 0 0 0 0 0 0 0 0 0 0 0 0 0 0 0 0 0 127 0" result="hardAlpha"/>
<feMorphology radius="12" operator="erode" in="SourceAlpha" result="effect1_dropShadow_0_237"/>
<feOffset dy="20"/>
<feGaussianBlur stdDeviation="19.5"/>
<feComposite in2="hardAlpha" operator="out"/>
<feColorMatrix type="matrix" values="0 0 0 0 0.388235 0 0 0 0 0.458824 0 0 0 0 0.486275 0 0 0 0.4 0"/>
<feBlend mode="normal" in2="BackgroundImageFix" result="effect1_dropShadow_0_237"/>
<feBlend mode="normal" in="SourceGraphic" in2="effect1_dropShadow_0_237" result="shape"/>
</filter>
<filter id="filter1_d_0_237" x="41.2" y="24.05" width="27.6" height="29.95" filterUnits="userSpaceOnUse" color-interpolation-filters="sRGB">
<feFlood flood-opacity="0" result="BackgroundImageFix"/>
<feColorMatrix in="SourceAlpha" type="matrix" values="0 0 0 0 0 0 0 0 0 0 0 0 0 0 0 0 0 0 127 0" result="hardAlpha"/>
<feOffset dy="4"/>
<feGaussianBlur stdDeviation="3.5"/>
<feComposite in2="hardAlpha" operator="out"/>
<feColorMatrix type="matrix" values="0 0 0 0 0.388451 0 0 0 0 0.459239 0 0 0 0 0.484722 0 0 0 0.8 0"/>
<feBlend mode="normal" in2="BackgroundImageFix" result="effect1_dropShadow_0_237"/>
<feBlend mode="normal" in="SourceGraphic" in2="effect1_dropShadow_0_237" result="shape"/>
</filter>
</defs>
</svg>
